# xmcd
#
# Track frame offsets: 
#        150
#        9150
#        19327
#        29983
#        39910
#        50722
#        58272
#        67976
#        80569
#        90456
#        102988
#        111026
#
# Disc length: 1634 seconds
#
# Revision: 0
# Processed by: cddbd v1.5.2PL0 Copyright (c) Steve Scherf et al.
# Submitted via: ExactAudioCopyFreeDBPlugin 1.0
#
DISCID=9a06600c
DTITLE=Cash, Johnny - All Aboard The Blue Train
DYEAR=1963
DGENRE=Country
TTITLE0=Blue Train
TTITLE1=There You Go
TTITLE2=Train Of Love
TTITLE3=Goodbye Little Darling
TTITLE4=I Heard That Lonesome Whistle
TTITLE5=Come In Stranger
TTITLE6=Rock Island Line
TTITLE7=Give My Love To Rose
TTITLE8=Hey Porter
TTITLE9=Folsom Prison Blues
TTITLE10=The Wreck Of Old '97
TTITLE11=So Doggone Lonesome
EXTD=
EXTT0=
EXTT1=
EXTT2=
EXTT3=
EXTT4=
EXTT5=
EXTT6=
EXTT7=
EXTT8=
EXTT9=
EXTT10=
EXTT11=
PLAYORDER=
